<mxfile host="app.diagrams.net" modified="2021-06-15T02:10:35.345Z" agent="5.0 (Macintosh; Intel Mac OS X 10_15_7) AppleWebKit/537.36 (KHTML, like Gecko) Chrome/91.0.4472.77 Safari/537.36" etag="jVEEqQDqXm-EfWP8flE7" version="14.7.7" type="github" pages="3">
  <diagram id="77fwva9utztQcVv2p6ES" name="Page-4">
    <mxGraphModel dx="2306" dy="2253" grid="1" gridSize="10" guides="1" tooltips="1" connect="1" arrows="1" fold="1" page="1" pageScale="1" pageWidth="827" pageHeight="1169" math="0" shadow="0">
      <root>
        <mxCell id="zYc368K3yH8iSrUEdlYF-0" />
        <mxCell id="zYc368K3yH8iSrUEdlYF-1" parent="zYc368K3yH8iSrUEdlYF-0" />
        <mxCell id="zYc368K3yH8iSrUEdlYF-6" style="edgeStyle=orthogonalEdgeStyle;rounded=0;orthogonalLoop=1;jettySize=auto;html=1;exitX=1;exitY=0.383;exitDx=0;exitDy=0;entryX=0.5;entryY=0;entryDx=0;entryDy=0;exitPerimeter=0;" parent="zYc368K3yH8iSrUEdlYF-1" source="zYc368K3yH8iSrUEdlYF-2" target="zYc368K3yH8iSrUEdlYF-5" edge="1">
          <mxGeometry relative="1" as="geometry" />
        </mxCell>
        <mxCell id="zYc368K3yH8iSrUEdlYF-9" style="edgeStyle=orthogonalEdgeStyle;rounded=0;orthogonalLoop=1;jettySize=auto;html=1;exitX=0.5;exitY=1;exitDx=0;exitDy=0;" parent="zYc368K3yH8iSrUEdlYF-1" source="zYc368K3yH8iSrUEdlYF-2" target="zYc368K3yH8iSrUEdlYF-8" edge="1">
          <mxGeometry relative="1" as="geometry" />
        </mxCell>
        <mxCell id="PX33TspYnBf1TjkrMHTh-3" style="edgeStyle=orthogonalEdgeStyle;rounded=0;orthogonalLoop=1;jettySize=auto;html=1;exitX=0.5;exitY=0;exitDx=0;exitDy=0;entryX=0.5;entryY=1;entryDx=0;entryDy=0;" parent="zYc368K3yH8iSrUEdlYF-1" source="zYc368K3yH8iSrUEdlYF-2" target="PX33TspYnBf1TjkrMHTh-2" edge="1">
          <mxGeometry relative="1" as="geometry" />
        </mxCell>
        <mxCell id="zYc368K3yH8iSrUEdlYF-2" value="&lt;div style=&quot;background-color: rgb(255 , 255 , 255) ; font-family: &amp;#34;monaco&amp;#34; , &amp;#34;consolas&amp;#34; , &amp;#34;menlo&amp;#34; , &amp;#34;courier new&amp;#34; , monospace , &amp;#34;menlo&amp;#34; , &amp;#34;monaco&amp;#34; , &amp;#34;courier new&amp;#34; , monospace ; line-height: 18px&quot;&gt;&lt;span style=&quot;color: #795e26&quot;&gt;streamRegulator.js&lt;/span&gt;&lt;/div&gt;&lt;div style=&quot;background-color: rgb(255 , 255 , 255) ; font-family: &amp;#34;monaco&amp;#34; , &amp;#34;consolas&amp;#34; , &amp;#34;menlo&amp;#34; , &amp;#34;courier new&amp;#34; , monospace , &amp;#34;menlo&amp;#34; , &amp;#34;monaco&amp;#34; , &amp;#34;courier new&amp;#34; , monospace ; line-height: 18px&quot;&gt;&lt;span style=&quot;color: #795e26&quot;&gt;batchRegulate&lt;/span&gt;&lt;/div&gt;" style="rounded=0;whiteSpace=wrap;html=1;" parent="zYc368K3yH8iSrUEdlYF-1" vertex="1">
          <mxGeometry x="80" y="250" width="210" height="60" as="geometry" />
        </mxCell>
        <mxCell id="zYc368K3yH8iSrUEdlYF-7" style="edgeStyle=orthogonalEdgeStyle;rounded=0;orthogonalLoop=1;jettySize=auto;html=1;exitX=0.5;exitY=1;exitDx=0;exitDy=0;entryX=1;entryY=0.5;entryDx=0;entryDy=0;" parent="zYc368K3yH8iSrUEdlYF-1" source="zYc368K3yH8iSrUEdlYF-5" target="zYc368K3yH8iSrUEdlYF-2" edge="1">
          <mxGeometry relative="1" as="geometry" />
        </mxCell>
        <mxCell id="zYc368K3yH8iSrUEdlYF-5" value="&lt;div style=&quot;background-color: rgb(255 , 255 , 255) ; font-family: &amp;#34;monaco&amp;#34; , &amp;#34;consolas&amp;#34; , &amp;#34;menlo&amp;#34; , &amp;#34;courier new&amp;#34; , monospace , &amp;#34;menlo&amp;#34; , &amp;#34;monaco&amp;#34; , &amp;#34;courier new&amp;#34; , monospace ; line-height: 18px&quot;&gt;&lt;span style=&quot;color: #795e26&quot;&gt;getRegulationResult&lt;/span&gt;&lt;/div&gt;" style="rounded=0;whiteSpace=wrap;html=1;" parent="zYc368K3yH8iSrUEdlYF-1" vertex="1">
          <mxGeometry x="370" y="250" width="170" height="60" as="geometry" />
        </mxCell>
        <mxCell id="zYc368K3yH8iSrUEdlYF-11" style="edgeStyle=orthogonalEdgeStyle;rounded=0;orthogonalLoop=1;jettySize=auto;html=1;entryX=0.5;entryY=0;entryDx=0;entryDy=0;" parent="zYc368K3yH8iSrUEdlYF-1" source="zYc368K3yH8iSrUEdlYF-8" target="zYc368K3yH8iSrUEdlYF-10" edge="1">
          <mxGeometry relative="1" as="geometry" />
        </mxCell>
        <mxCell id="zYc368K3yH8iSrUEdlYF-8" value="&lt;div style=&quot;background-color: rgb(255 , 255 , 255) ; font-family: &amp;#34;monaco&amp;#34; , &amp;#34;consolas&amp;#34; , &amp;#34;menlo&amp;#34; , &amp;#34;courier new&amp;#34; , monospace , &amp;#34;menlo&amp;#34; , &amp;#34;monaco&amp;#34; , &amp;#34;courier new&amp;#34; , monospace ; line-height: 18px&quot;&gt;&lt;span style=&quot;color: #795e26&quot;&gt;conference.js&lt;/span&gt;&lt;/div&gt;&lt;div style=&quot;background-color: rgb(255 , 255 , 255) ; font-family: &amp;#34;monaco&amp;#34; , &amp;#34;consolas&amp;#34; , &amp;#34;menlo&amp;#34; , &amp;#34;courier new&amp;#34; , monospace , &amp;#34;menlo&amp;#34; , &amp;#34;monaco&amp;#34; , &amp;#34;courier new&amp;#34; , monospace ; line-height: 18px&quot;&gt;&lt;span style=&quot;color: #795e26&quot;&gt;onSetVideoBitrate&lt;/span&gt;&lt;/div&gt;" style="rounded=0;whiteSpace=wrap;html=1;" parent="zYc368K3yH8iSrUEdlYF-1" vertex="1">
          <mxGeometry x="100" y="460" width="170" height="60" as="geometry" />
        </mxCell>
        <mxCell id="zYc368K3yH8iSrUEdlYF-13" style="edgeStyle=orthogonalEdgeStyle;rounded=0;orthogonalLoop=1;jettySize=auto;html=1;exitX=1;exitY=0.5;exitDx=0;exitDy=0;entryX=0;entryY=0.5;entryDx=0;entryDy=0;" parent="zYc368K3yH8iSrUEdlYF-1" source="zYc368K3yH8iSrUEdlYF-10" target="zYc368K3yH8iSrUEdlYF-12" edge="1">
          <mxGeometry relative="1" as="geometry" />
        </mxCell>
        <mxCell id="zYc368K3yH8iSrUEdlYF-10" value="&lt;div style=&quot;background-color: rgb(255 , 255 , 255) ; font-family: &amp;#34;monaco&amp;#34; , &amp;#34;consolas&amp;#34; , &amp;#34;menlo&amp;#34; , &amp;#34;courier new&amp;#34; , monospace , &amp;#34;menlo&amp;#34; , &amp;#34;monaco&amp;#34; , &amp;#34;courier new&amp;#34; , monospace ; line-height: 18px&quot;&gt;&lt;span style=&quot;color: #795e26&quot;&gt;rpcRequest.js&lt;/span&gt;&lt;/div&gt;&lt;div style=&quot;background-color: rgb(255 , 255 , 255) ; font-family: &amp;#34;monaco&amp;#34; , &amp;#34;consolas&amp;#34; , &amp;#34;menlo&amp;#34; , &amp;#34;courier new&amp;#34; , monospace , &amp;#34;menlo&amp;#34; , &amp;#34;monaco&amp;#34; , &amp;#34;courier new&amp;#34; , monospace ; line-height: 18px&quot;&gt;&lt;span style=&quot;color: #795e26&quot;&gt;setVideoBitrate&lt;/span&gt;&lt;/div&gt;" style="rounded=0;whiteSpace=wrap;html=1;" parent="zYc368K3yH8iSrUEdlYF-1" vertex="1">
          <mxGeometry x="80" y="620" width="210" height="60" as="geometry" />
        </mxCell>
        <mxCell id="zYc368K3yH8iSrUEdlYF-15" style="edgeStyle=orthogonalEdgeStyle;rounded=0;orthogonalLoop=1;jettySize=auto;html=1;exitX=1;exitY=0.5;exitDx=0;exitDy=0;entryX=0;entryY=0.5;entryDx=0;entryDy=0;" parent="zYc368K3yH8iSrUEdlYF-1" source="zYc368K3yH8iSrUEdlYF-12" target="zYc368K3yH8iSrUEdlYF-14" edge="1">
          <mxGeometry relative="1" as="geometry" />
        </mxCell>
        <mxCell id="zYc368K3yH8iSrUEdlYF-12" value="&lt;div style=&quot;background-color: rgb(255 , 255 , 255) ; font-family: &amp;#34;monaco&amp;#34; , &amp;#34;consolas&amp;#34; , &amp;#34;menlo&amp;#34; , &amp;#34;courier new&amp;#34; , monospace , &amp;#34;menlo&amp;#34; , &amp;#34;monaco&amp;#34; , &amp;#34;courier new&amp;#34; , monospace ; line-height: 18px&quot;&gt;&lt;span style=&quot;color: #a31515&quot;&gt;index.js&lt;/span&gt;&lt;/div&gt;&lt;div style=&quot;background-color: rgb(255 , 255 , 255) ; font-family: &amp;#34;monaco&amp;#34; , &amp;#34;consolas&amp;#34; , &amp;#34;menlo&amp;#34; , &amp;#34;courier new&amp;#34; , monospace , &amp;#34;menlo&amp;#34; , &amp;#34;monaco&amp;#34; , &amp;#34;courier new&amp;#34; , monospace ; line-height: 18px&quot;&gt;&lt;span style=&quot;color: #a31515&quot;&gt;setVideoBitrate&lt;/span&gt;&lt;/div&gt;" style="rounded=0;whiteSpace=wrap;html=1;" parent="zYc368K3yH8iSrUEdlYF-1" vertex="1">
          <mxGeometry x="360" y="620" width="120" height="60" as="geometry" />
        </mxCell>
        <mxCell id="zYc368K3yH8iSrUEdlYF-17" style="edgeStyle=orthogonalEdgeStyle;rounded=0;orthogonalLoop=1;jettySize=auto;html=1;exitX=1;exitY=0.5;exitDx=0;exitDy=0;entryX=0;entryY=0.5;entryDx=0;entryDy=0;" parent="zYc368K3yH8iSrUEdlYF-1" source="zYc368K3yH8iSrUEdlYF-14" target="zYc368K3yH8iSrUEdlYF-16" edge="1">
          <mxGeometry relative="1" as="geometry" />
        </mxCell>
        <mxCell id="zYc368K3yH8iSrUEdlYF-14" value="&lt;div style=&quot;background-color: rgb(255 , 255 , 255) ; font-family: &amp;#34;monaco&amp;#34; , &amp;#34;consolas&amp;#34; , &amp;#34;menlo&amp;#34; , &amp;#34;courier new&amp;#34; , monospace , &amp;#34;menlo&amp;#34; , &amp;#34;monaco&amp;#34; , &amp;#34;courier new&amp;#34; , monospace ; line-height: 18px&quot;&gt;&lt;span style=&quot;color: #795e26&quot;&gt;wrtcConnection.js&lt;/span&gt;&lt;/div&gt;&lt;div style=&quot;background-color: rgb(255 , 255 , 255) ; font-family: &amp;#34;monaco&amp;#34; , &amp;#34;consolas&amp;#34; , &amp;#34;menlo&amp;#34; , &amp;#34;courier new&amp;#34; , monospace , &amp;#34;menlo&amp;#34; , &amp;#34;monaco&amp;#34; , &amp;#34;courier new&amp;#34; , monospace ; line-height: 18px&quot;&gt;&lt;span style=&quot;color: #795e26&quot;&gt;setVideoBitrate&lt;/span&gt;&lt;/div&gt;" style="rounded=0;whiteSpace=wrap;html=1;" parent="zYc368K3yH8iSrUEdlYF-1" vertex="1">
          <mxGeometry x="520" y="620" width="160" height="60" as="geometry" />
        </mxCell>
        <mxCell id="zYc368K3yH8iSrUEdlYF-20" style="edgeStyle=orthogonalEdgeStyle;rounded=0;orthogonalLoop=1;jettySize=auto;html=1;exitX=0.5;exitY=0;exitDx=0;exitDy=0;entryX=0.5;entryY=1;entryDx=0;entryDy=0;" parent="zYc368K3yH8iSrUEdlYF-1" source="zYc368K3yH8iSrUEdlYF-16" target="zYc368K3yH8iSrUEdlYF-19" edge="1">
          <mxGeometry relative="1" as="geometry" />
        </mxCell>
        <mxCell id="zYc368K3yH8iSrUEdlYF-16" value="&lt;div style=&quot;background-color: rgb(255 , 255 , 255) ; font-family: &amp;#34;monaco&amp;#34; , &amp;#34;consolas&amp;#34; , &amp;#34;menlo&amp;#34; , &amp;#34;courier new&amp;#34; , monospace , &amp;#34;menlo&amp;#34; , &amp;#34;monaco&amp;#34; , &amp;#34;courier new&amp;#34; , monospace ; line-height: 18px&quot;&gt;&lt;span style=&quot;color: #795e26&quot;&gt;VideoFrameConstructorWrapper.cc&lt;/span&gt;&lt;/div&gt;&lt;div style=&quot;background-color: rgb(255 , 255 , 255) ; font-family: &amp;#34;monaco&amp;#34; , &amp;#34;consolas&amp;#34; , &amp;#34;menlo&amp;#34; , &amp;#34;courier new&amp;#34; , monospace , &amp;#34;menlo&amp;#34; , &amp;#34;monaco&amp;#34; , &amp;#34;courier new&amp;#34; , monospace ; line-height: 18px&quot;&gt;&lt;span style=&quot;color: #795e26&quot;&gt;setRemotesTargetBitrates&lt;/span&gt;&lt;/div&gt;" style="rounded=0;whiteSpace=wrap;html=1;" parent="zYc368K3yH8iSrUEdlYF-1" vertex="1">
          <mxGeometry x="760" y="620" width="260" height="60" as="geometry" />
        </mxCell>
        <mxCell id="zYc368K3yH8iSrUEdlYF-19" value="&lt;div style=&quot;background-color: rgb(255 , 255 , 255) ; font-family: &amp;#34;monaco&amp;#34; , &amp;#34;consolas&amp;#34; , &amp;#34;menlo&amp;#34; , &amp;#34;courier new&amp;#34; , monospace , &amp;#34;menlo&amp;#34; , &amp;#34;monaco&amp;#34; , &amp;#34;courier new&amp;#34; , monospace ; line-height: 18px&quot;&gt;&lt;span style=&quot;color: #267f99&quot;&gt;VideoFrameConstructor::&lt;/span&gt;&lt;span style=&quot;color: rgb(121 , 94 , 38) ; font-family: &amp;#34;monaco&amp;#34; , &amp;#34;consolas&amp;#34; , &amp;#34;menlo&amp;#34; , &amp;#34;courier new&amp;#34; , monospace , &amp;#34;menlo&amp;#34; , &amp;#34;monaco&amp;#34; , &amp;#34;courier new&amp;#34; , monospace&quot;&gt;setRemotesTargetBitrates&lt;/span&gt;&lt;/div&gt;" style="rounded=0;whiteSpace=wrap;html=1;" parent="zYc368K3yH8iSrUEdlYF-1" vertex="1">
          <mxGeometry x="715" y="510" width="365" height="60" as="geometry" />
        </mxCell>
        <mxCell id="PX33TspYnBf1TjkrMHTh-0" value="&lt;b&gt;反馈推流stream ssrc 和 对应的bitrate&lt;/b&gt;" style="text;html=1;align=center;verticalAlign=middle;resizable=0;points=[];autosize=1;strokeColor=none;" parent="zYc368K3yH8iSrUEdlYF-1" vertex="1">
          <mxGeometry x="230" y="390" width="220" height="20" as="geometry" />
        </mxCell>
        <mxCell id="PX33TspYnBf1TjkrMHTh-1" value="上行" style="text;html=1;align=center;verticalAlign=middle;resizable=0;points=[];autosize=1;strokeColor=none;" parent="zYc368K3yH8iSrUEdlYF-1" vertex="1">
          <mxGeometry x="110" y="390" width="40" height="20" as="geometry" />
        </mxCell>
        <mxCell id="PX33TspYnBf1TjkrMHTh-5" style="edgeStyle=orthogonalEdgeStyle;rounded=0;orthogonalLoop=1;jettySize=auto;html=1;exitX=0.5;exitY=0;exitDx=0;exitDy=0;" parent="zYc368K3yH8iSrUEdlYF-1" source="PX33TspYnBf1TjkrMHTh-2" target="PX33TspYnBf1TjkrMHTh-4" edge="1">
          <mxGeometry relative="1" as="geometry" />
        </mxCell>
        <mxCell id="PX33TspYnBf1TjkrMHTh-2" value="&lt;div style=&quot;background-color: rgb(255 , 255 , 255) ; font-family: &amp;#34;monaco&amp;#34; , &amp;#34;consolas&amp;#34; , &amp;#34;menlo&amp;#34; , &amp;#34;courier new&amp;#34; , monospace , &amp;#34;menlo&amp;#34; , &amp;#34;monaco&amp;#34; , &amp;#34;courier new&amp;#34; , monospace ; line-height: 18px&quot;&gt;&lt;div style=&quot;line-height: 18px&quot;&gt;&lt;span style=&quot;color: rgb(121 , 94 , 38)&quot;&gt;conference.js&lt;/span&gt;&lt;/div&gt;&lt;/div&gt;&lt;div style=&quot;background-color: rgb(255 , 255 , 255) ; font-family: &amp;#34;monaco&amp;#34; , &amp;#34;consolas&amp;#34; , &amp;#34;menlo&amp;#34; , &amp;#34;courier new&amp;#34; , monospace , &amp;#34;menlo&amp;#34; , &amp;#34;monaco&amp;#34; , &amp;#34;courier new&amp;#34; , monospace ; line-height: 18px&quot;&gt;&lt;span style=&quot;color: #795e26&quot;&gt;onChangeSubscriptionPipeline&lt;/span&gt;&lt;/div&gt;" style="rounded=0;whiteSpace=wrap;html=1;" parent="zYc368K3yH8iSrUEdlYF-1" vertex="1">
          <mxGeometry x="60" y="100" width="250" height="60" as="geometry" />
        </mxCell>
        <mxCell id="PX33TspYnBf1TjkrMHTh-9" style="edgeStyle=orthogonalEdgeStyle;rounded=0;orthogonalLoop=1;jettySize=auto;html=1;exitX=0.5;exitY=0;exitDx=0;exitDy=0;entryX=0.5;entryY=1;entryDx=0;entryDy=0;" parent="zYc368K3yH8iSrUEdlYF-1" source="PX33TspYnBf1TjkrMHTh-4" target="PX33TspYnBf1TjkrMHTh-8" edge="1">
          <mxGeometry relative="1" as="geometry" />
        </mxCell>
        <mxCell id="PX33TspYnBf1TjkrMHTh-4" value="&lt;div style=&quot;background-color: rgb(255 , 255 , 255) ; font-family: &amp;#34;monaco&amp;#34; , &amp;#34;consolas&amp;#34; , &amp;#34;menlo&amp;#34; , &amp;#34;courier new&amp;#34; , monospace , &amp;#34;menlo&amp;#34; , &amp;#34;monaco&amp;#34; , &amp;#34;courier new&amp;#34; , monospace ; line-height: 18px&quot;&gt;&lt;span style=&quot;color: #795e26&quot;&gt;roomController.js&lt;/span&gt;&lt;/div&gt;&lt;div style=&quot;background-color: rgb(255 , 255 , 255) ; font-family: &amp;#34;monaco&amp;#34; , &amp;#34;consolas&amp;#34; , &amp;#34;menlo&amp;#34; , &amp;#34;courier new&amp;#34; , monospace , &amp;#34;menlo&amp;#34; , &amp;#34;monaco&amp;#34; , &amp;#34;courier new&amp;#34; , monospace ; line-height: 18px&quot;&gt;&lt;span style=&quot;color: #795e26&quot;&gt;updateVideoSubscribe&lt;/span&gt;&lt;/div&gt;" style="rounded=0;whiteSpace=wrap;html=1;" parent="zYc368K3yH8iSrUEdlYF-1" vertex="1">
          <mxGeometry x="85" y="-80" width="200" height="60" as="geometry" />
        </mxCell>
        <mxCell id="PX33TspYnBf1TjkrMHTh-6" value="&lt;b&gt;&amp;nbsp;反馈订阅状态&lt;/b&gt;" style="text;html=1;align=center;verticalAlign=middle;resizable=0;points=[];autosize=1;strokeColor=none;" parent="zYc368K3yH8iSrUEdlYF-1" vertex="1">
          <mxGeometry x="195" y="30" width="90" height="20" as="geometry" />
        </mxCell>
        <mxCell id="PX33TspYnBf1TjkrMHTh-7" value="下行" style="text;html=1;align=center;verticalAlign=middle;resizable=0;points=[];autosize=1;strokeColor=none;" parent="zYc368K3yH8iSrUEdlYF-1" vertex="1">
          <mxGeometry x="120" y="30" width="40" height="20" as="geometry" />
        </mxCell>
        <mxCell id="PX33TspYnBf1TjkrMHTh-12" style="edgeStyle=orthogonalEdgeStyle;rounded=0;orthogonalLoop=1;jettySize=auto;html=1;exitX=1;exitY=0;exitDx=0;exitDy=0;entryX=0;entryY=0.5;entryDx=0;entryDy=0;" parent="zYc368K3yH8iSrUEdlYF-1" source="PX33TspYnBf1TjkrMHTh-8" target="PX33TspYnBf1TjkrMHTh-10" edge="1">
          <mxGeometry relative="1" as="geometry" />
        </mxCell>
        <mxCell id="PX33TspYnBf1TjkrMHTh-13" style="edgeStyle=orthogonalEdgeStyle;rounded=0;orthogonalLoop=1;jettySize=auto;html=1;exitX=1;exitY=0.5;exitDx=0;exitDy=0;entryX=0;entryY=0.5;entryDx=0;entryDy=0;" parent="zYc368K3yH8iSrUEdlYF-1" source="PX33TspYnBf1TjkrMHTh-8" target="PX33TspYnBf1TjkrMHTh-11" edge="1">
          <mxGeometry relative="1" as="geometry" />
        </mxCell>
        <mxCell id="PX33TspYnBf1TjkrMHTh-8" value="&lt;div style=&quot;background-color: rgb(255 , 255 , 255) ; font-family: &amp;#34;monaco&amp;#34; , &amp;#34;consolas&amp;#34; , &amp;#34;menlo&amp;#34; , &amp;#34;courier new&amp;#34; , monospace , &amp;#34;menlo&amp;#34; , &amp;#34;monaco&amp;#34; , &amp;#34;courier new&amp;#34; , monospace ; line-height: 18px&quot;&gt;&lt;div style=&quot;line-height: 18px&quot;&gt;&lt;span style=&quot;color: rgb(121 , 94 , 38)&quot;&gt;roomController.js&lt;/span&gt;&lt;/div&gt;&lt;/div&gt;&lt;div style=&quot;background-color: rgb(255 , 255 , 255) ; font-family: &amp;#34;monaco&amp;#34; , &amp;#34;consolas&amp;#34; , &amp;#34;menlo&amp;#34; , &amp;#34;courier new&amp;#34; , monospace , &amp;#34;menlo&amp;#34; , &amp;#34;monaco&amp;#34; , &amp;#34;courier new&amp;#34; , monospace ; line-height: 18px&quot;&gt;&lt;span style=&quot;color: #795e26&quot;&gt;updateStreamTrackSink&lt;/span&gt;&lt;/div&gt;" style="rounded=0;whiteSpace=wrap;html=1;" parent="zYc368K3yH8iSrUEdlYF-1" vertex="1">
          <mxGeometry x="57.5" y="-200" width="255" height="60" as="geometry" />
        </mxCell>
        <mxCell id="PX33TspYnBf1TjkrMHTh-17" style="edgeStyle=orthogonalEdgeStyle;rounded=0;orthogonalLoop=1;jettySize=auto;html=1;exitX=1;exitY=0.5;exitDx=0;exitDy=0;entryX=0;entryY=0.5;entryDx=0;entryDy=0;" parent="zYc368K3yH8iSrUEdlYF-1" source="PX33TspYnBf1TjkrMHTh-10" target="PX33TspYnBf1TjkrMHTh-16" edge="1">
          <mxGeometry relative="1" as="geometry" />
        </mxCell>
        <mxCell id="PX33TspYnBf1TjkrMHTh-10" value="&lt;div style=&quot;background-color: rgb(255 , 255 , 255) ; font-family: &amp;#34;monaco&amp;#34; , &amp;#34;consolas&amp;#34; , &amp;#34;menlo&amp;#34; , &amp;#34;courier new&amp;#34; , monospace , &amp;#34;menlo&amp;#34; , &amp;#34;monaco&amp;#34; , &amp;#34;courier new&amp;#34; , monospace ; line-height: 18px&quot;&gt;&lt;span style=&quot;color: #a31515&quot;&gt;webrtc/index.js&lt;/span&gt;&lt;/div&gt;&lt;div style=&quot;background-color: rgb(255 , 255 , 255) ; font-family: &amp;#34;monaco&amp;#34; , &amp;#34;consolas&amp;#34; , &amp;#34;menlo&amp;#34; , &amp;#34;courier new&amp;#34; , monospace , &amp;#34;menlo&amp;#34; , &amp;#34;monaco&amp;#34; , &amp;#34;courier new&amp;#34; , monospace ; line-height: 18px&quot;&gt;&lt;span style=&quot;color: #a31515&quot;&gt;updateStreamTrackSink&lt;/span&gt;&lt;/div&gt;" style="rounded=0;whiteSpace=wrap;html=1;" parent="zYc368K3yH8iSrUEdlYF-1" vertex="1">
          <mxGeometry x="400" y="-340" width="180" height="60" as="geometry" />
        </mxCell>
        <mxCell id="PX33TspYnBf1TjkrMHTh-19" style="edgeStyle=orthogonalEdgeStyle;rounded=0;orthogonalLoop=1;jettySize=auto;html=1;exitX=1;exitY=0.5;exitDx=0;exitDy=0;entryX=0;entryY=0.5;entryDx=0;entryDy=0;" parent="zYc368K3yH8iSrUEdlYF-1" source="PX33TspYnBf1TjkrMHTh-11" target="PX33TspYnBf1TjkrMHTh-18" edge="1">
          <mxGeometry relative="1" as="geometry" />
        </mxCell>
        <mxCell id="PX33TspYnBf1TjkrMHTh-11" value="&lt;div style=&quot;background-color: rgb(255 , 255 , 255) ; font-family: &amp;#34;monaco&amp;#34; , &amp;#34;consolas&amp;#34; , &amp;#34;menlo&amp;#34; , &amp;#34;courier new&amp;#34; , monospace , &amp;#34;menlo&amp;#34; , &amp;#34;monaco&amp;#34; , &amp;#34;courier new&amp;#34; , monospace ; line-height: 18px&quot;&gt;&lt;div style=&quot;line-height: 18px&quot;&gt;&lt;span style=&quot;color: rgb(163 , 21 , 21)&quot;&gt;webrtc/index.js&lt;/span&gt;&lt;/div&gt;&lt;/div&gt;&lt;div style=&quot;background-color: rgb(255 , 255 , 255) ; font-family: &amp;#34;monaco&amp;#34; , &amp;#34;consolas&amp;#34; , &amp;#34;menlo&amp;#34; , &amp;#34;courier new&amp;#34; , monospace , &amp;#34;menlo&amp;#34; , &amp;#34;monaco&amp;#34; , &amp;#34;courier new&amp;#34; , monospace ; line-height: 18px&quot;&gt;&lt;span style=&quot;color: #a31515&quot;&gt;setStreamTrackSource&lt;/span&gt;&lt;/div&gt;" style="rounded=0;whiteSpace=wrap;html=1;" parent="zYc368K3yH8iSrUEdlYF-1" vertex="1">
          <mxGeometry x="405" y="-200" width="170" height="60" as="geometry" />
        </mxCell>
        <mxCell id="PX33TspYnBf1TjkrMHTh-14" value="first" style="text;html=1;strokeColor=none;fillColor=none;align=center;verticalAlign=middle;whiteSpace=wrap;rounded=0;" parent="zYc368K3yH8iSrUEdlYF-1" vertex="1">
          <mxGeometry x="330" y="-330" width="40" height="20" as="geometry" />
        </mxCell>
        <mxCell id="PX33TspYnBf1TjkrMHTh-15" value="second" style="text;html=1;align=center;verticalAlign=middle;resizable=0;points=[];autosize=1;strokeColor=none;" parent="zYc368K3yH8iSrUEdlYF-1" vertex="1">
          <mxGeometry x="325" y="-200" width="50" height="20" as="geometry" />
        </mxCell>
        <mxCell id="PX33TspYnBf1TjkrMHTh-24" style="edgeStyle=orthogonalEdgeStyle;rounded=0;orthogonalLoop=1;jettySize=auto;html=1;exitX=1;exitY=0.5;exitDx=0;exitDy=0;entryX=0;entryY=0.5;entryDx=0;entryDy=0;" parent="zYc368K3yH8iSrUEdlYF-1" source="PX33TspYnBf1TjkrMHTh-16" target="PX33TspYnBf1TjkrMHTh-23" edge="1">
          <mxGeometry relative="1" as="geometry" />
        </mxCell>
        <mxCell id="PX33TspYnBf1TjkrMHTh-16" value="&lt;div style=&quot;background-color: rgb(255 , 255 , 255) ; font-family: &amp;#34;monaco&amp;#34; , &amp;#34;consolas&amp;#34; , &amp;#34;menlo&amp;#34; , &amp;#34;courier new&amp;#34; , monospace , &amp;#34;menlo&amp;#34; , &amp;#34;monaco&amp;#34; , &amp;#34;courier new&amp;#34; , monospace ; line-height: 18px&quot;&gt;&lt;span style=&quot;color: #795e26&quot;&gt;wrtcConnection.js&lt;/span&gt;&lt;/div&gt;&lt;div style=&quot;background-color: rgb(255 , 255 , 255) ; font-family: &amp;#34;monaco&amp;#34; , &amp;#34;consolas&amp;#34; , &amp;#34;menlo&amp;#34; , &amp;#34;courier new&amp;#34; , monospace , &amp;#34;menlo&amp;#34; , &amp;#34;monaco&amp;#34; , &amp;#34;courier new&amp;#34; , monospace ; line-height: 18px&quot;&gt;&lt;span style=&quot;color: #795e26&quot;&gt;updateStreamTrackSink&lt;/span&gt;&lt;/div&gt;" style="rounded=0;whiteSpace=wrap;html=1;" parent="zYc368K3yH8iSrUEdlYF-1" vertex="1">
          <mxGeometry x="690" y="-340" width="190" height="60" as="geometry" />
        </mxCell>
        <mxCell id="PX33TspYnBf1TjkrMHTh-22" style="edgeStyle=orthogonalEdgeStyle;rounded=0;orthogonalLoop=1;jettySize=auto;html=1;" parent="zYc368K3yH8iSrUEdlYF-1" source="PX33TspYnBf1TjkrMHTh-18" target="PX33TspYnBf1TjkrMHTh-21" edge="1">
          <mxGeometry relative="1" as="geometry" />
        </mxCell>
        <mxCell id="PX33TspYnBf1TjkrMHTh-18" value="&lt;div style=&quot;background-color: rgb(255 , 255 , 255) ; font-family: &amp;#34;monaco&amp;#34; , &amp;#34;consolas&amp;#34; , &amp;#34;menlo&amp;#34; , &amp;#34;courier new&amp;#34; , monospace , &amp;#34;menlo&amp;#34; , &amp;#34;monaco&amp;#34; , &amp;#34;courier new&amp;#34; , monospace ; line-height: 18px&quot;&gt;&lt;span style=&quot;color: rgb(121 , 94 , 38)&quot;&gt;wrtcConnection.js&lt;/span&gt;&lt;span style=&quot;color: #795e26&quot;&gt;&lt;br&gt;&lt;/span&gt;&lt;/div&gt;&lt;div style=&quot;background-color: rgb(255 , 255 , 255) ; font-family: &amp;#34;monaco&amp;#34; , &amp;#34;consolas&amp;#34; , &amp;#34;menlo&amp;#34; , &amp;#34;courier new&amp;#34; , monospace , &amp;#34;menlo&amp;#34; , &amp;#34;monaco&amp;#34; , &amp;#34;courier new&amp;#34; , monospace ; line-height: 18px&quot;&gt;&lt;span style=&quot;color: #795e26&quot;&gt;setStreamTrackSource&lt;/span&gt;&lt;/div&gt;" style="rounded=0;whiteSpace=wrap;html=1;" parent="zYc368K3yH8iSrUEdlYF-1" vertex="1">
          <mxGeometry x="690" y="-200" width="185" height="60" as="geometry" />
        </mxCell>
        <mxCell id="PX33TspYnBf1TjkrMHTh-21" value="&lt;div style=&quot;background-color: rgb(255 , 255 , 255) ; font-family: &amp;#34;monaco&amp;#34; , &amp;#34;consolas&amp;#34; , &amp;#34;menlo&amp;#34; , &amp;#34;courier new&amp;#34; , monospace , &amp;#34;menlo&amp;#34; , &amp;#34;monaco&amp;#34; , &amp;#34;courier new&amp;#34; , monospace ; line-height: 18px&quot;&gt;&lt;div style=&quot;font-family: &amp;#34;monaco&amp;#34; , &amp;#34;consolas&amp;#34; , &amp;#34;menlo&amp;#34; , &amp;#34;courier new&amp;#34; , monospace , &amp;#34;menlo&amp;#34; , &amp;#34;monaco&amp;#34; , &amp;#34;courier new&amp;#34; , monospace ; line-height: 18px&quot;&gt;&lt;span style=&quot;color: #267f99&quot;&gt;VideoFramePacketizerWrapper.cc&lt;/span&gt;&lt;/div&gt;&lt;/div&gt;&lt;div style=&quot;background-color: rgb(255 , 255 , 255) ; font-family: &amp;#34;monaco&amp;#34; , &amp;#34;consolas&amp;#34; , &amp;#34;menlo&amp;#34; , &amp;#34;courier new&amp;#34; , monospace , &amp;#34;menlo&amp;#34; , &amp;#34;monaco&amp;#34; , &amp;#34;courier new&amp;#34; , monospace ; line-height: 18px&quot;&gt;&lt;span style=&quot;color: #795e26&quot;&gt;setStreamTrackSource&lt;/span&gt;&lt;/div&gt;" style="rounded=0;whiteSpace=wrap;html=1;" parent="zYc368K3yH8iSrUEdlYF-1" vertex="1">
          <mxGeometry x="960" y="-200" width="240" height="60" as="geometry" />
        </mxCell>
        <mxCell id="PX33TspYnBf1TjkrMHTh-23" value="&lt;div style=&quot;background-color: rgb(255 , 255 , 255) ; font-family: &amp;#34;monaco&amp;#34; , &amp;#34;consolas&amp;#34; , &amp;#34;menlo&amp;#34; , &amp;#34;courier new&amp;#34; , monospace , &amp;#34;menlo&amp;#34; , &amp;#34;monaco&amp;#34; , &amp;#34;courier new&amp;#34; , monospace ; line-height: 18px&quot;&gt;&lt;span style=&quot;color: #267f99&quot;&gt;VideoFrameConstructorWrapper&lt;/span&gt;.cc&lt;/div&gt;&lt;div style=&quot;background-color: rgb(255 , 255 , 255) ; font-family: &amp;#34;monaco&amp;#34; , &amp;#34;consolas&amp;#34; , &amp;#34;menlo&amp;#34; , &amp;#34;courier new&amp;#34; , monospace , &amp;#34;menlo&amp;#34; , &amp;#34;monaco&amp;#34; , &amp;#34;courier new&amp;#34; , monospace ; line-height: 18px&quot;&gt;&lt;span style=&quot;color: #795e26&quot;&gt;updateStreamTrackSink&lt;/span&gt;&lt;/div&gt;" style="rounded=0;whiteSpace=wrap;html=1;" parent="zYc368K3yH8iSrUEdlYF-1" vertex="1">
          <mxGeometry x="960" y="-340" width="240" height="60" as="geometry" />
        </mxCell>
      </root>
    </mxGraphModel>
  </diagram>
  <diagram id="kp5AuZFtI73lpQiERl1g" name="Page-2">
    <mxGraphModel dx="3133" dy="1084" grid="1" gridSize="10" guides="1" tooltips="1" connect="1" arrows="1" fold="1" page="1" pageScale="1" pageWidth="827" pageHeight="1169" math="0" shadow="0">
      <root>
        <mxCell id="U-1sS9K9ChfEd7PJVH99-0" />
        <mxCell id="U-1sS9K9ChfEd7PJVH99-1" parent="U-1sS9K9ChfEd7PJVH99-0" />
        <mxCell id="U-1sS9K9ChfEd7PJVH99-2" value="webrtc-node" style="rounded=0;whiteSpace=wrap;html=1;" parent="U-1sS9K9ChfEd7PJVH99-1" vertex="1">
          <mxGeometry x="-20" y="500" width="120" height="60" as="geometry" />
        </mxCell>
        <mxCell id="U-1sS9K9ChfEd7PJVH99-3" value="CDN" style="ellipse;shape=cloud;whiteSpace=wrap;html=1;" parent="U-1sS9K9ChfEd7PJVH99-1" vertex="1">
          <mxGeometry x="100" y="200" width="880" height="80" as="geometry" />
        </mxCell>
        <mxCell id="U-1sS9K9ChfEd7PJVH99-4" value="" style="shape=flexArrow;endArrow=classic;html=1;" parent="U-1sS9K9ChfEd7PJVH99-1" edge="1">
          <mxGeometry width="50" height="50" relative="1" as="geometry">
            <mxPoint x="80" y="490" as="sourcePoint" />
            <mxPoint x="210" y="300" as="targetPoint" />
          </mxGeometry>
        </mxCell>
        <mxCell id="U-1sS9K9ChfEd7PJVH99-5" value="RTMP" style="text;html=1;align=center;verticalAlign=middle;resizable=0;points=[];autosize=1;strokeColor=none;" parent="U-1sS9K9ChfEd7PJVH99-1" vertex="1">
          <mxGeometry x="85" y="370" width="50" height="20" as="geometry" />
        </mxCell>
        <mxCell id="U-1sS9K9ChfEd7PJVH99-6" value="" style="endArrow=classic;html=1;" parent="U-1sS9K9ChfEd7PJVH99-1" edge="1">
          <mxGeometry width="50" height="50" relative="1" as="geometry">
            <mxPoint x="120" y="310" as="sourcePoint" />
            <mxPoint x="130" y="160" as="targetPoint" />
          </mxGeometry>
        </mxCell>
        <mxCell id="U-1sS9K9ChfEd7PJVH99-7" value="CDN 目前已经支持 多音轨的推流" style="text;html=1;align=center;verticalAlign=middle;resizable=0;points=[];autosize=1;strokeColor=none;" parent="U-1sS9K9ChfEd7PJVH99-1" vertex="1">
          <mxGeometry x="80" y="120" width="190" height="20" as="geometry" />
        </mxCell>
        <mxCell id="U-1sS9K9ChfEd7PJVH99-8" value="导播台" style="rounded=0;whiteSpace=wrap;html=1;" parent="U-1sS9K9ChfEd7PJVH99-1" vertex="1">
          <mxGeometry x="450" y="490" width="130" height="60" as="geometry" />
        </mxCell>
        <mxCell id="U-1sS9K9ChfEd7PJVH99-9" value="" style="shape=flexArrow;endArrow=classic;html=1;" parent="U-1sS9K9ChfEd7PJVH99-1" edge="1">
          <mxGeometry width="50" height="50" relative="1" as="geometry">
            <mxPoint x="340" y="290" as="sourcePoint" />
            <mxPoint x="450" y="480" as="targetPoint" />
          </mxGeometry>
        </mxCell>
        <mxCell id="U-1sS9K9ChfEd7PJVH99-10" value="&lt;b&gt;导播台计划支持多音轨 拉流&lt;/b&gt;" style="text;html=1;align=center;verticalAlign=middle;resizable=0;points=[];autosize=1;strokeColor=none;" parent="U-1sS9K9ChfEd7PJVH99-1" vertex="1">
          <mxGeometry x="240" y="430" width="160" height="20" as="geometry" />
        </mxCell>
        <mxCell id="U-1sS9K9ChfEd7PJVH99-11" value="语音识别" style="ellipse;whiteSpace=wrap;html=1;" parent="U-1sS9K9ChfEd7PJVH99-1" vertex="1">
          <mxGeometry x="780" y="690" width="115" height="70" as="geometry" />
        </mxCell>
        <mxCell id="U-1sS9K9ChfEd7PJVH99-12" value="多音轨&lt;br&gt;混音" style="ellipse;whiteSpace=wrap;html=1;" parent="U-1sS9K9ChfEd7PJVH99-1" vertex="1">
          <mxGeometry x="460" y="670" width="110" height="70" as="geometry" />
        </mxCell>
        <mxCell id="U-1sS9K9ChfEd7PJVH99-14" value="" style="shape=flexArrow;endArrow=classic;html=1;" parent="U-1sS9K9ChfEd7PJVH99-1" edge="1">
          <mxGeometry width="50" height="50" relative="1" as="geometry">
            <mxPoint x="580" y="480" as="sourcePoint" />
            <mxPoint x="650" y="320" as="targetPoint" />
          </mxGeometry>
        </mxCell>
        <mxCell id="U-1sS9K9ChfEd7PJVH99-15" value="1.合流视频&lt;br&gt;2.混音视频&lt;br&gt;3. 字幕" style="text;html=1;align=center;verticalAlign=middle;resizable=0;points=[];autosize=1;strokeColor=none;" parent="U-1sS9K9ChfEd7PJVH99-1" vertex="1">
          <mxGeometry x="630" y="400" width="70" height="50" as="geometry" />
        </mxCell>
        <mxCell id="U-1sS9K9ChfEd7PJVH99-16" value="推回CDN" style="text;html=1;strokeColor=none;fillColor=none;align=center;verticalAlign=middle;whiteSpace=wrap;rounded=0;" parent="U-1sS9K9ChfEd7PJVH99-1" vertex="1">
          <mxGeometry x="580" y="360" width="40" height="20" as="geometry" />
        </mxCell>
        <mxCell id="U-1sS9K9ChfEd7PJVH99-17" value="" style="shape=flexArrow;endArrow=classic;html=1;" parent="U-1sS9K9ChfEd7PJVH99-1" edge="1">
          <mxGeometry width="50" height="50" relative="1" as="geometry">
            <mxPoint x="780" y="300" as="sourcePoint" />
            <mxPoint x="920" y="470" as="targetPoint" />
          </mxGeometry>
        </mxCell>
        <mxCell id="U-1sS9K9ChfEd7PJVH99-18" value="录制任务" style="rounded=0;whiteSpace=wrap;html=1;" parent="U-1sS9K9ChfEd7PJVH99-1" vertex="1">
          <mxGeometry x="900" y="490" width="120" height="60" as="geometry" />
        </mxCell>
        <mxCell id="U-1sS9K9ChfEd7PJVH99-20" value="MP4，HLS，&lt;br&gt;TS" style="text;html=1;strokeColor=none;fillColor=none;align=center;verticalAlign=middle;whiteSpace=wrap;rounded=0;" parent="U-1sS9K9ChfEd7PJVH99-1" vertex="1">
          <mxGeometry x="1050" y="530" width="40" height="20" as="geometry" />
        </mxCell>
        <mxCell id="U-1sS9K9ChfEd7PJVH99-21" value="" style="shape=flexArrow;endArrow=classic;html=1;" parent="U-1sS9K9ChfEd7PJVH99-1" edge="1">
          <mxGeometry width="50" height="50" relative="1" as="geometry">
            <mxPoint x="780" y="690" as="sourcePoint" />
            <mxPoint x="600" y="630" as="targetPoint" />
          </mxGeometry>
        </mxCell>
        <mxCell id="U-1sS9K9ChfEd7PJVH99-22" value="字幕" style="ellipse;whiteSpace=wrap;html=1;" parent="U-1sS9K9ChfEd7PJVH99-1" vertex="1">
          <mxGeometry x="455" y="560" width="120" height="80" as="geometry" />
        </mxCell>
        <mxCell id="U-1sS9K9ChfEd7PJVH99-23" value="多路音轨" style="text;html=1;align=center;verticalAlign=middle;resizable=0;points=[];autosize=1;strokeColor=none;" parent="U-1sS9K9ChfEd7PJVH99-1" vertex="1">
          <mxGeometry x="660" y="600" width="60" height="20" as="geometry" />
        </mxCell>
      </root>
    </mxGraphModel>
  </diagram>
  <diagram id="hN5bFXta6vj6cHc7OS0R" name="Page-3">
    <mxGraphModel dx="2306" dy="1084" grid="1" gridSize="10" guides="1" tooltips="1" connect="1" arrows="1" fold="1" page="1" pageScale="1" pageWidth="827" pageHeight="1169" math="0" shadow="0">
      <root>
        <mxCell id="blasa6s07C7Kz8wTbH1C-0" />
        <mxCell id="blasa6s07C7Kz8wTbH1C-1" parent="blasa6s07C7Kz8wTbH1C-0" />
      </root>
    </mxGraphModel>
  </diagram>
</mxfile>
